<svg fill="#000000" xmlns="http://www.w3.org/2000/svg"  viewBox="0 0 24 24" width="24px" height="24px"><path d="M 8.6601562 2.9472656 L 1.296875 10.236328 L 2.703125 11.658203 L 4 10.375 L 4 14.802734 C 4 15.978766 4.9704526 16.947266 6.1464844 16.947266 L 10.71875 16.947266 L 16 22.582031 L 16 16.947266 L 17.853516 16.947266 C 19.029547 16.947266 20 15.978766 20 14.802734 L 20 10.947266 L 23.65625 10.947266 L 15.318359 2.9472656 L 8.6601562 2.9472656 z M 11.40625 4.9472656 L 14.513672 4.9472656 L 18.683594 8.9472656 L 15.386719 8.9472656 L 11.40625 4.9472656 z M 9.0292969 5.3945312 L 14.556641 10.947266 L 18 10.947266 L 18 14.802734 C 18 14.886704 17.93748 14.947266 17.853516 14.947266 L 14 14.947266 L 14 17.523438 L 11.585938 14.947266 L 6.1464844 14.947266 C 6.0625161 14.947266 6 14.886703 6 14.802734 L 6 8.3945312 L 9.0292969 5.3945312 z"/></svg>